<svg xmlns="http://www.w3.org/2000/svg" width="89.618" height="80.518" viewBox="0 0 89.618 80.518"><defs><style>.a{fill:#fff;}</style></defs><g transform="translate(-59.153 -69.523)"><path class="a" d="M83.991,113.474c-9.1-15.708-7.932-28.764,3.281-37.994a26.35,26.35,0,0,1,33.877.421c11.031,9.552,11.882,22.576,2.435,37.973,1.962.893,3.961,1.687,5.861,2.684,11.81,6.162,18.4,15.838,19.28,29.257.234,3.634-.291,4.226-4.008,4.226H63.226c-3.774,0-4.293-.6-4.008-4.475C60.4,129.837,68.418,119.392,83.991,113.474ZM144.5,145.763c-.2-1.692-.244-3.073-.519-4.407-2.663-12.806-11.228-19.949-23.111-23.791a3.973,3.973,0,0,0-2.8.561c-9.541,5.554-18.994,5.44-28.489-.151a4.864,4.864,0,0,0-3.322-.561c-10.289,2.637-17.354,8.991-20.956,18.963-1.038,2.923-1.428,6.084-2.154,9.344h13.5a26.139,26.139,0,0,1,.057-4.75c.389-2.014-1.625-5.606,1.941-5.669s1.775,3.551,2.1,5.57a30.649,30.649,0,0,1,.052,4.9ZM126.127,95.85a22.184,22.184,0,1,0,0,.005Z" transform="translate(0 0)"/><path class="a" d="M173.669,195.346H163.1c-.254.623-.343,1.464-.8,1.812-.659.493-1.781,1.075-2.372.825-2.128-.893-1.376-2.98-1.22-4.553.078-.8,1.23-2.128,1.936-2.154,5.087-.192,10.19-.192,15.277,0a2.935,2.935,0,0,1,2.014,2.076c.047,1.485-.114,3.712-1.038,4.345C174.92,198.985,174.162,196.956,173.669,195.346Z" transform="translate(-47.75 -58.481)"/><path class="a" d="M139.276,144.1a16.29,16.29,0,0,1-4.153-.088c-.914-.249-1.6-1.329-2.393-2.035.747-.675,1.448-1.864,2.243-1.921a59.972,59.972,0,0,1,9.058,0c.8.062,1.521,1.241,2.279,1.91-.8.711-1.5,1.827-2.419,2.045A20.67,20.67,0,0,1,139.276,144.1Z" transform="translate(-35.383 -33.834)"/></g></svg>